<svg id="Layer_1" data-name="Layer 1" xmlns="http://www.w3.org/2000/svg" viewBox="0 0 400 90"><defs><style>.cls-1{fill:#fbb040;}.cls-2{fill:#00aeef;}.cls-3{fill:#231f20;}.cls-4{fill:#1b75bc;}.cls-5{fill:#39b54a;}.cls-6{fill:#f15a29;}</style></defs><title>Brandon Logo</title><path class="cls-1" d="M6.64,8.53h4.57a12.61,12.61,0,0,1,2.11.17A4.8,4.8,0,0,1,15,9.32a3.14,3.14,0,0,1,1.1,1.16,3.61,3.61,0,0,1,.39,1.82,3.76,3.76,0,0,1-.17,1,3.12,3.12,0,0,1-.47.95,3.75,3.75,0,0,1-.8.79,3.27,3.27,0,0,1-1.13.52v.09a4.15,4.15,0,0,1,2.35,1.16,3.32,3.32,0,0,1,.77,2.4,4.58,4.58,0,0,1-.46,2,3.93,3.93,0,0,1-1.21,1.38,5.4,5.4,0,0,1-1.8.82,8.56,8.56,0,0,1-2.2.26h-5Zm4.5,12.53c1.76,0,2.66-.69,2.68-2.07a1.64,1.64,0,0,0-.61-1.46,3.5,3.5,0,0,0-2-.45H9.78l-.07,4Zm-.2-6.41a2.54,2.54,0,0,0,1.76-.5,1.81,1.81,0,0,0,.56-1.36,1.37,1.37,0,0,0-.53-1.24,3.13,3.13,0,0,0-1.7-.37H9.88l-.06,3.47Z"/><path class="cls-1" d="M19.67,12.16h2.68l.22,2.52h.07a5.81,5.81,0,0,1,2-2.11A5.22,5.22,0,0,1,28.38,12a4.34,4.34,0,0,1,.94.35l-.72,2.86a7.44,7.44,0,0,0-.92-.24,5.1,5.1,0,0,0-1-.08,3.82,3.82,0,0,0-2,.62,5,5,0,0,0-1.75,2.19l-.11,6H19.46Z"/><path class="cls-1" d="M30.66,20.5a3.5,3.5,0,0,1,.43-1.71,3.37,3.37,0,0,1,1.31-1.25,8.55,8.55,0,0,1,2.28-.83,21.47,21.47,0,0,1,3.37-.43,1.71,1.71,0,0,0-.64-1.23,2.73,2.73,0,0,0-1.71-.44,4.7,4.7,0,0,0-1.62.29,13,13,0,0,0-1.77.78l-1.13-2.24a13.81,13.81,0,0,1,2.47-1.12,8.75,8.75,0,0,1,2.75-.44,5,5,0,0,1,3.65,1.28,5.15,5.15,0,0,1,1.27,3.94l-.12,6.61H38.52l-.22-1.3h-.09a8.94,8.94,0,0,1-1.88,1.13,5.07,5.07,0,0,1-2.09.45,4.19,4.19,0,0,1-1.51-.26A3.19,3.19,0,0,1,31.6,23a3.46,3.46,0,0,1-.71-1.1A3.64,3.64,0,0,1,30.66,20.5Zm3.16-.26a.88.88,0,0,0,.4.83,2,2,0,0,0,1.12.27A3.29,3.29,0,0,0,36.73,21,6.39,6.39,0,0,0,38,20.24l0-1.91a15.1,15.1,0,0,0-2,.24,5.25,5.25,0,0,0-1.28.4,1.63,1.63,0,0,0-.67.58A1.32,1.32,0,0,0,33.82,20.24Z"/><path class="cls-1" d="M43.42,12.16H46.1l.22,1.54h.09a7.26,7.26,0,0,1,1.67-1.28,4.28,4.28,0,0,1,2.19-.54A3.06,3.06,0,0,1,53,13.14a6,6,0,0,1,.81,3.45l-.13,7.12H50.4L50.51,17a3.07,3.07,0,0,0-.32-1.7,1.41,1.41,0,0,0-1.27-.54,2.19,2.19,0,0,0-1.18.31,5.45,5.45,0,0,0-1.1.9l-.14,7.71H43.22Z"/><path class="cls-1" d="M55.13,17.94a7.62,7.62,0,0,1,.44-2.54,6.37,6.37,0,0,1,1.1-1.9,4.84,4.84,0,0,1,1.53-1.2A4,4,0,0,1,60,11.88a3.35,3.35,0,0,1,1.6.34,5,5,0,0,1,1.21.89l-.08-1.79.07-3.93h3.29l-.29,16.32H63.1l-.22-1.18h-.07a5.74,5.74,0,0,1-1.45,1A3.59,3.59,0,0,1,59.7,24a4.28,4.28,0,0,1-1.91-.42,4,4,0,0,1-1.45-1.19,5.61,5.61,0,0,1-.92-1.9A8.7,8.7,0,0,1,55.13,17.94Zm3.38-.05A4.44,4.44,0,0,0,59,20.41a1.82,1.82,0,0,0,1.58.79,2.26,2.26,0,0,0,1-.24,2.93,2.93,0,0,0,.93-.83l.08-4.69a2.93,2.93,0,0,0-.89-.59,2.58,2.58,0,0,0-1-.17,2,2,0,0,0-1.59.79A3.77,3.77,0,0,0,58.51,17.89Z"/><path class="cls-1" d="M67.5,17.94A6.56,6.56,0,0,1,68,15.36a5.88,5.88,0,0,1,1.3-1.9,5.7,5.7,0,0,1,6.06-1.17,5.44,5.44,0,0,1,1.79,1.17,5.57,5.57,0,0,1,1.23,1.9,6.57,6.57,0,0,1,.42,2.58,6.51,6.51,0,0,1-.51,2.57,5.67,5.67,0,0,1-1.3,1.9,5.65,5.65,0,0,1-4,1.58,5.65,5.65,0,0,1-2.11-.4,5.47,5.47,0,0,1-1.79-1.18,5.38,5.38,0,0,1-1.23-1.9A6.52,6.52,0,0,1,67.5,17.94Zm3.37,0a4.41,4.41,0,0,0,.53,2.4,1.87,1.87,0,0,0,1.7.88,1.92,1.92,0,0,0,1.72-.88,4.38,4.38,0,0,0,.62-2.4,4.41,4.41,0,0,0-.53-2.4,1.88,1.88,0,0,0-1.7-.89,1.93,1.93,0,0,0-1.72.89A4.38,4.38,0,0,0,70.87,17.94Z"/><path class="cls-1" d="M80.53,12.16h2.68l.22,1.54h.09a7.43,7.43,0,0,1,1.66-1.28,4.35,4.35,0,0,1,2.2-.54,3,3,0,0,1,2.72,1.26,5.92,5.92,0,0,1,.82,3.45l-.13,7.12H87.5L87.62,17a3,3,0,0,0-.33-1.7A1.38,1.38,0,0,0,86,14.79a2.19,2.19,0,0,0-1.18.31,5.45,5.45,0,0,0-1.1.9l-.14,7.71H80.32Z"/><path class="cls-2" d="M96,22a2,2,0,0,1,.55-1.43,1.74,1.74,0,0,1,1.3-.55,1.66,1.66,0,0,1,1.27.55,1.91,1.91,0,0,1,.5,1.43,2,2,0,0,1-.55,1.42,1.77,1.77,0,0,1-1.29.53,1.72,1.72,0,0,1-1.28-.53A1.93,1.93,0,0,1,96,22Zm.15-8.34a2,2,0,0,1,.55-1.43A1.7,1.7,0,0,1,98,11.72a1.68,1.68,0,0,1,1.28.55,2,2,0,0,1,.5,1.43,2,2,0,0,1-.55,1.42,1.77,1.77,0,0,1-1.3.54,1.69,1.69,0,0,1-1.27-.54A1.89,1.89,0,0,1,96.16,13.7Z"/><path class="cls-3" d="M121.83,23.27a13,13,0,0,1-1.24-6,13.2,13.2,0,0,1,1.45-6,14.56,14.56,0,0,1,3.76-4.54l1,1A13.12,13.12,0,0,0,123.4,12a12.76,12.76,0,0,0-1.16,5.29,12.61,12.61,0,0,0,1,5.29,12.5,12.5,0,0,0,3.25,4.31l-1,1A13.73,13.73,0,0,1,121.83,23.27Z"/><path class="cls-2" d="M133.33,18.59,128.81,8.53h3.54l1.41,3.65c.2.59.4,1.17.62,1.73s.42,1.14.64,1.75h.09l.72-1.75c.23-.56.47-1.14.7-1.73l1.54-3.65h3.45l-4.88,10.06-.09,5.12h-3.31Z"/><path class="cls-2" d="M141.71,17.94a6.93,6.93,0,0,1,.51-2.58,5.88,5.88,0,0,1,1.3-1.9,5.77,5.77,0,0,1,3.95-1.58,5.62,5.62,0,0,1,2.11.41,5.44,5.44,0,0,1,1.79,1.17,5.57,5.57,0,0,1,1.23,1.9,6.75,6.75,0,0,1,.43,2.58,6.69,6.69,0,0,1-.52,2.57,5.66,5.66,0,0,1-3.13,3.08,5.7,5.7,0,0,1-2.12.4,5.56,5.56,0,0,1-2.1-.4,5.35,5.35,0,0,1-3-3.08A6.52,6.52,0,0,1,141.71,17.94Zm3.38,0a4.32,4.32,0,0,0,.52,2.4,1.87,1.87,0,0,0,1.7.88,1.94,1.94,0,0,0,1.73-.88,4.47,4.47,0,0,0,.61-2.4,4.32,4.32,0,0,0-.53-2.4,1.86,1.86,0,0,0-1.7-.89,1.93,1.93,0,0,0-1.72.89A4.38,4.38,0,0,0,145.09,17.94Z"/><path class="cls-2" d="M155.72,12.16h2.69l.22,2.52h.07a5.81,5.81,0,0,1,2-2.11,4.87,4.87,0,0,1,2.51-.69,4.93,4.93,0,0,1,1.2.12,4.34,4.34,0,0,1,.94.35l-.72,2.86a7.44,7.44,0,0,0-.92-.24,5.1,5.1,0,0,0-1-.08,3.88,3.88,0,0,0-2,.62,5.09,5.09,0,0,0-1.75,2.19l-.1,6h-3.29Z"/><path class="cls-2" d="M167.28,7.39h3.29l-.17,9.36.07,0,4.17-4.57h3.61L174,16.91l4.42,6.8h-3.56L172,19.17l-1.69,1.68-.05,2.86H167Z"/><path class="cls-3" d="M180.34,26.84a13.12,13.12,0,0,0,3.39-4.31,12.64,12.64,0,0,0,1.16-5.29,12.43,12.43,0,0,0-1-5.29,12.5,12.5,0,0,0-3.25-4.31l1-1a13.67,13.67,0,0,1,3.6,4.54,13.13,13.13,0,0,1,1.25,6,13.29,13.29,0,0,1-1.46,6,14.33,14.33,0,0,1-3.76,4.54Z"/><path class="cls-4" d="M204.4,18.24H214l0,1.45h-9.62Zm.09-5h9.61l0,1.44h-9.62Z"/><path class="cls-4" d="M225.62,17.17l-8.45,5.89,0-1.84L224,16.49V16.4l-6.65-4.73,0-1.84,8.24,5.9Z"/><path class="cls-3" d="M245.23,24.16c0-.42,0-.82.05-1.2s.06-.75.09-1.11.06-.71.08-1.07.05-.73.06-1.12a1.65,1.65,0,0,0-.13-.66,1.27,1.27,0,0,0-.48-.57,2.88,2.88,0,0,0-1-.42,6.5,6.5,0,0,0-1.61-.17l0-1.21a6.7,6.7,0,0,0,1.62-.16,3,3,0,0,0,1-.42,1.43,1.43,0,0,0,.51-.57,1.66,1.66,0,0,0,.14-.66c0-.75,0-1.48-.06-2.21a21.24,21.24,0,0,1-.06-2.29,4,4,0,0,1,.27-1.5,2.14,2.14,0,0,1,.78-1,3.5,3.5,0,0,1,1.3-.5,10,10,0,0,1,1.84-.15H251l0,1.12h-1.17a6.75,6.75,0,0,0-1.4.12,2,2,0,0,0-.85.36,1.23,1.23,0,0,0-.43.65,3.79,3.79,0,0,0-.13,1c0,.66,0,1.35,0,2.06s.05,1.42,0,2.15a3,3,0,0,1-.46,1.74,2.49,2.49,0,0,1-1.62.8v.1a2.4,2.4,0,0,1,1.59.8,2.86,2.86,0,0,1,.4,1.74c0,.79-.05,1.51-.1,2.16s-.09,1.34-.11,2.05a4,4,0,0,0,.1,1,1.18,1.18,0,0,0,.4.65,2,2,0,0,0,.85.36,6.58,6.58,0,0,0,1.39.12h1.17l0,1.12h-1.37a9.73,9.73,0,0,1-1.83-.16,3.29,3.29,0,0,1-1.29-.5,1.92,1.92,0,0,1-.74-.94A3.89,3.89,0,0,1,245.23,24.16Z"/><path class="cls-5" d="M55.38,46a6.34,6.34,0,0,1,.52-2.53,5.56,5.56,0,0,1,3.3-3,6.77,6.77,0,0,1,2.34-.4,5,5,0,0,1,2.31.49,6,6,0,0,1,1.62,1.16L64.53,43a5.83,5.83,0,0,0-1.38-1,3.58,3.58,0,0,0-1.57-.35,4.63,4.63,0,0,0-1.73.32,3.88,3.88,0,0,0-1.34.89,4.25,4.25,0,0,0-.89,1.39A4.86,4.86,0,0,0,57.28,46a4.91,4.91,0,0,0,.27,1.77,3.94,3.94,0,0,0,.82,1.37,3.74,3.74,0,0,0,1.31.88,4.44,4.44,0,0,0,1.7.32A4.26,4.26,0,0,0,63.24,50a7.29,7.29,0,0,0,1.55-1l.78,1.24a6.83,6.83,0,0,1-2,1.3,5.94,5.94,0,0,1-2.32.47,6.63,6.63,0,0,1-2.35-.4,5.08,5.08,0,0,1-3.09-3A6.46,6.46,0,0,1,55.38,46Z"/><path class="cls-5" d="M67.3,46a6.71,6.71,0,0,1,.48-2.53A5.78,5.78,0,0,1,69,41.63a5.06,5.06,0,0,1,1.74-1.16,5.43,5.43,0,0,1,4.09,0,4.78,4.78,0,0,1,1.69,1.16,5.65,5.65,0,0,1,1.14,1.87A6.73,6.73,0,0,1,78,46a6.64,6.64,0,0,1-.48,2.51,5.73,5.73,0,0,1-1.2,1.86,5,5,0,0,1-1.73,1.15,5.36,5.36,0,0,1-2.06.4,5.26,5.26,0,0,1-2-.4,4.75,4.75,0,0,1-1.69-1.15,5.61,5.61,0,0,1-1.14-1.86A6.65,6.65,0,0,1,67.3,46Zm1.9,0a6.06,6.06,0,0,0,.21,1.77,4.39,4.39,0,0,0,.68,1.37,3.11,3.11,0,0,0,2.5,1.2A3.23,3.23,0,0,0,74,50.05a3.46,3.46,0,0,0,1.11-.88,4.26,4.26,0,0,0,.72-1.37A5.66,5.66,0,0,0,76.13,46a6.26,6.26,0,0,0-.21-1.78,4.19,4.19,0,0,0-.68-1.39,3.08,3.08,0,0,0-2.5-1.21,3.23,3.23,0,0,0-1.43.32,3.49,3.49,0,0,0-1.11.89,4.26,4.26,0,0,0-.72,1.39A5.88,5.88,0,0,0,69.2,46Z"/><path class="cls-5" d="M80.5,40.35H82l.12,1.93h.09A8.82,8.82,0,0,1,84.1,40.7a4.14,4.14,0,0,1,2.27-.63,3.33,3.33,0,0,1,2.83,1.15,5.43,5.43,0,0,1,.85,3.41l-.13,7H88.09l.12-6.78a3.94,3.94,0,0,0-.54-2.39,2.21,2.21,0,0,0-1.91-.78,3.28,3.28,0,0,0-.91.13,3.6,3.6,0,0,0-.82.39,6.25,6.25,0,0,0-.84.64,12.43,12.43,0,0,0-.91.89l-.14,7.9H80.31Z"/><path class="cls-5" d="M93.15,48.92A7.9,7.9,0,0,0,95.1,50a6.71,6.71,0,0,0,2.52.42,3.87,3.87,0,0,0,2.2-.51,1.58,1.58,0,0,0,.74-1.26,1.45,1.45,0,0,0-.76-1.17,9.76,9.76,0,0,0-2.74-1A11.4,11.4,0,0,1,95.47,46a5.94,5.94,0,0,1-1.3-.72,3.7,3.7,0,0,1-.88-.89,1.91,1.91,0,0,1-.31-1.1A2.84,2.84,0,0,1,94.17,41a4.48,4.48,0,0,1,1.44-.68,7.48,7.48,0,0,1,2-.24,6.68,6.68,0,0,1,2.38.43,8.45,8.45,0,0,1,2,1L101,42.75a5.89,5.89,0,0,0-1.58-.86,5.79,5.79,0,0,0-3.15-.2,2.36,2.36,0,0,0-.83.35,1.34,1.34,0,0,0-.46.52,1.52,1.52,0,0,0-.14.63c0,.47.29.85.9,1.15a12,12,0,0,0,2.37.85,10.63,10.63,0,0,1,3.26,1.33,2.31,2.31,0,0,1,1,2,2.83,2.83,0,0,1-.33,1.31,3.3,3.3,0,0,1-1,1.07,4.84,4.84,0,0,1-1.53.73,7.34,7.34,0,0,1-2.08.27,8.06,8.06,0,0,1-3-.53,9.93,9.93,0,0,1-2.34-1.24Z"/><path class="cls-5" d="M104.4,46a6.91,6.91,0,0,1,.49-2.53,5.78,5.78,0,0,1,1.2-1.87,5,5,0,0,1,1.73-1.16,5.36,5.36,0,0,1,2.06-.4,5.26,5.26,0,0,1,2,.4,4.87,4.87,0,0,1,1.69,1.16,5.65,5.65,0,0,1,1.14,1.87,6.73,6.73,0,0,1,.39,2.53,7.05,7.05,0,0,1-.48,2.51,5.9,5.9,0,0,1-1.2,1.86,5,5,0,0,1-1.74,1.15,5.31,5.31,0,0,1-2,.4,5.19,5.19,0,0,1-2-.4,4.75,4.75,0,0,1-1.69-1.15,5.45,5.45,0,0,1-1.14-1.86A6.86,6.86,0,0,1,104.4,46Zm1.91,0a5.74,5.74,0,0,0,.21,1.77,4.19,4.19,0,0,0,.68,1.37,3.24,3.24,0,0,0,3.92.88,3.39,3.39,0,0,0,1.12-.88A4.26,4.26,0,0,0,113,47.8a5.66,5.66,0,0,0,.28-1.77,5.91,5.91,0,0,0-.22-1.78,4.18,4.18,0,0,0-.67-1.39,3.22,3.22,0,0,0-1.09-.89,3.11,3.11,0,0,0-1.41-.32,3.23,3.23,0,0,0-1.43.32,3.29,3.29,0,0,0-1.11.89,4.47,4.47,0,0,0-.73,1.39A6.21,6.21,0,0,0,106.31,46Z"/><path class="cls-5" d="M117.43,35.09H123L122.76,48a2.4,2.4,0,0,0,.53,1.81,2.16,2.16,0,0,0,1.55.55,5.09,5.09,0,0,0,2.07-.54l.44,1.44c-.5.19-1,.35-1.4.48a5.33,5.33,0,0,1-1.54.2,3.27,3.27,0,0,1-2.63-1,4.39,4.39,0,0,1-.86-3.05l.2-11.23h-3.71Z"/><path class="cls-5" d="M129.34,46a6.41,6.41,0,0,1,.52-2.5,6,6,0,0,1,1.27-1.88,5.44,5.44,0,0,1,1.79-1.17,5.25,5.25,0,0,1,2.05-.41,5.43,5.43,0,0,1,2.08.38,4.32,4.32,0,0,1,1.53,1.09,4.64,4.64,0,0,1,.95,1.67,6.55,6.55,0,0,1,.29,2.17,6.06,6.06,0,0,1-.08,1h-8.5a4.11,4.11,0,0,0,1.19,2.91,4,4,0,0,0,2.9,1.07,5.2,5.2,0,0,0,1.76-.28,7.35,7.35,0,0,0,1.57-.77l.63,1.26a9.5,9.5,0,0,1-1.86.93,6.4,6.4,0,0,1-2.35.4,6.22,6.22,0,0,1-2.26-.41A5.38,5.38,0,0,1,131,50.38a5.33,5.33,0,0,1-1.22-1.86A6.47,6.47,0,0,1,129.34,46Zm8.79-.86a3.75,3.75,0,0,0-.81-2.67,3,3,0,0,0-2.35-.92,3.53,3.53,0,0,0-1.29.25,3.46,3.46,0,0,0-1.12.7,4.21,4.21,0,0,0-.86,1.11,4.34,4.34,0,0,0-.46,1.53Z"/><path class="cls-3" d="M145,50a2,2,0,0,1,.55-1.43,1.77,1.77,0,0,1,1.29-.55,1.7,1.7,0,0,1,1.28.55,1.91,1.91,0,0,1,.5,1.43,1.94,1.94,0,0,1-.55,1.42,1.77,1.77,0,0,1-1.3.54,1.69,1.69,0,0,1-1.27-.54A1.88,1.88,0,0,1,145,50Z"/><path class="cls-1" d="M154.54,35.09h5.55L159.86,48a2.44,2.44,0,0,0,.54,1.81,2.16,2.16,0,0,0,1.55.55,5,5,0,0,0,2.06-.54l.45,1.44c-.5.19-1,.35-1.4.48a5.38,5.38,0,0,1-1.54.2,3.29,3.29,0,0,1-2.64-1,4.45,4.45,0,0,1-.85-3.05l.2-11.23h-3.72Z"/><path class="cls-1" d="M166.25,46a7.12,7.12,0,0,1,.48-2.53,5.8,5.8,0,0,1,1.21-1.87,4.93,4.93,0,0,1,1.73-1.16,5.31,5.31,0,0,1,2.05-.4,5.19,5.19,0,0,1,2,.4,4.78,4.78,0,0,1,1.69,1.16,5.49,5.49,0,0,1,1.14,1.87A6.73,6.73,0,0,1,177,46a6.84,6.84,0,0,1-.47,2.51,5.93,5.93,0,0,1-1.21,1.86,5,5,0,0,1-1.73,1.15,5.36,5.36,0,0,1-2.06.4,5.26,5.26,0,0,1-2-.4,4.84,4.84,0,0,1-1.69-1.15,5.61,5.61,0,0,1-1.14-1.86A6.65,6.65,0,0,1,166.25,46Zm1.9,0a5.72,5.72,0,0,0,.22,1.77,4,4,0,0,0,.68,1.37,3,3,0,0,0,1.08.88,3.11,3.11,0,0,0,1.41.32,3.23,3.23,0,0,0,2.54-1.2,4.48,4.48,0,0,0,.73-1.37,6,6,0,0,0,.27-1.77,6.26,6.26,0,0,0-.21-1.78,4.19,4.19,0,0,0-.68-1.39,3.18,3.18,0,0,0-1.08-.89,3.12,3.12,0,0,0-1.42-.32,3.18,3.18,0,0,0-1.42.32,3.29,3.29,0,0,0-1.11.89,4.09,4.09,0,0,0-.73,1.39A5.88,5.88,0,0,0,168.15,46Z"/><path class="cls-1" d="M178.75,53.74a2.38,2.38,0,0,1,.48-1.33,4.58,4.58,0,0,1,1.36-1.18v-.1a2.52,2.52,0,0,1-.77-.69,1.86,1.86,0,0,1-.32-1.17,2.27,2.27,0,0,1,.36-1.11,3.34,3.34,0,0,1,1-1v-.09a3.59,3.59,0,0,1-.93-1.18,3.69,3.69,0,0,1-.36-1.76,4,4,0,0,1,.37-1.68,4.27,4.27,0,0,1,1-1.27,4.47,4.47,0,0,1,1.37-.81,4.77,4.77,0,0,1,1.65-.29,4.32,4.32,0,0,1,1.61.28H190l0,1.47h-2.91a4.62,4.62,0,0,1,.67,1,2.87,2.87,0,0,1,.29,1.35,4,4,0,0,1-.35,1.63,3.75,3.75,0,0,1-.92,1.23,4.07,4.07,0,0,1-1.35.77,5.28,5.28,0,0,1-1.65.26,4.2,4.2,0,0,1-.9-.1,4.45,4.45,0,0,1-.93-.32,1.63,1.63,0,0,0-.87,1.31,1,1,0,0,0,.58,1,3.55,3.55,0,0,0,1.66.31h2.43a6.11,6.11,0,0,1,3.11.61,2.15,2.15,0,0,1,1,2,3,3,0,0,1-.45,1.51,4.33,4.33,0,0,1-1.23,1.26,6.8,6.8,0,0,1-1.92.86,8.92,8.92,0,0,1-2.51.33,6.87,6.87,0,0,1-3.69-.82A2.54,2.54,0,0,1,178.75,53.74Zm1.59-.18a1.63,1.63,0,0,0,.88,1.44,5.1,5.1,0,0,0,2.65.56,6.89,6.89,0,0,0,1.7-.2,4.91,4.91,0,0,0,1.31-.52,2.77,2.77,0,0,0,.83-.75,1.58,1.58,0,0,0,.29-.86,1.05,1.05,0,0,0-.6-1.09,4.58,4.58,0,0,0-1.86-.28h-2.12c-.32,0-.61,0-.89,0a3.19,3.19,0,0,1-.77-.15,3.2,3.2,0,0,0-1.1.92A1.93,1.93,0,0,0,180.34,53.56Zm3.43-6.76a2.47,2.47,0,0,0,1.79-.72,2.63,2.63,0,0,0,.76-2,2.68,2.68,0,0,0-.18-1.07,2.65,2.65,0,0,0-.52-.84,2.37,2.37,0,0,0-.78-.54,2.48,2.48,0,0,0-2,0,2.36,2.36,0,0,0-.8.54,2.74,2.74,0,0,0-.56.84,2.88,2.88,0,0,0-.22,1.07,2.56,2.56,0,0,0,.71,2A2.39,2.39,0,0,0,183.77,46.8Z"/><path class="cls-3" d="M195.56,51.23a13,13,0,0,1-1.25-6,13.29,13.29,0,0,1,1.46-6,14.31,14.31,0,0,1,3.76-4.54l1,1a13.09,13.09,0,0,0-3.4,4.31A12.72,12.72,0,0,0,196,45.19a12.4,12.4,0,0,0,1,5.29,12.59,12.59,0,0,0,3.24,4.31l-1,1A13.57,13.57,0,0,1,195.56,51.23Z"/><path class="cls-6" d="M208.13,36.5a5.1,5.1,0,0,0-1.67,1.55,4.38,4.38,0,0,0-.7,2.13,1.31,1.31,0,0,1,.59-.14,1.46,1.46,0,0,1,1.12.47,1.7,1.7,0,0,1,.41,1.21,1.84,1.84,0,0,1-.49,1.31,1.63,1.63,0,0,1-1.19.49,1.72,1.72,0,0,1-1.43-.74,3.22,3.22,0,0,1-.54-2.06,5.88,5.88,0,0,1,.91-3.13,6.11,6.11,0,0,1,2.41-2.2Zm5.12,0a5.1,5.1,0,0,0-1.67,1.55,4.37,4.37,0,0,0-.69,2.13,1.27,1.27,0,0,1,.58-.14,1.45,1.45,0,0,1,1.12.47,1.66,1.66,0,0,1,.42,1.21,1.85,1.85,0,0,1-.5,1.31,1.6,1.6,0,0,1-1.19.49,1.72,1.72,0,0,1-1.43-.74,3.22,3.22,0,0,1-.53-2.06,6,6,0,0,1,.9-3.13,6.18,6.18,0,0,1,2.41-2.2Z"/><path class="cls-6" d="M377.55,42.4a4.65,4.65,0,0,0,1.69-1.53,4.35,4.35,0,0,0,.7-2.15,1.31,1.31,0,0,1-.59.14,1.48,1.48,0,0,1-1.14-.46,1.6,1.6,0,0,1-.41-1.2,1.86,1.86,0,0,1,.49-1.31,1.6,1.6,0,0,1,1.19-.5,1.7,1.7,0,0,1,1.44.74,3.35,3.35,0,0,1,.53,2.07,5.94,5.94,0,0,1-.91,3.13,6.45,6.45,0,0,1-2.38,2.19Zm5.12,0a4.65,4.65,0,0,0,1.69-1.53,4.35,4.35,0,0,0,.7-2.15,1.3,1.3,0,0,1-.58.14,1.49,1.49,0,0,1-1.15-.46,1.64,1.64,0,0,1-.41-1.2,1.86,1.86,0,0,1,.49-1.31,1.61,1.61,0,0,1,1.2-.5,1.73,1.73,0,0,1,1.44.74,3.42,3.42,0,0,1,.52,2.07,5.85,5.85,0,0,1-.91,3.13,6.45,6.45,0,0,1-2.38,2.19Z"/><path class="cls-3" d="M390.12,54.79a13.16,13.16,0,0,0,3.4-4.31,12.73,12.73,0,0,0,1.16-5.29,11.7,11.7,0,0,0-4.22-9.59l1-1a13.57,13.57,0,0,1,3.6,4.54,12.84,12.84,0,0,1,1.25,6,13.17,13.17,0,0,1-1.46,6,14.18,14.18,0,0,1-3.76,4.54Z"/><path class="cls-3" d="M6.84,82.05a6.81,6.81,0,0,0,1.4-.12,2.21,2.21,0,0,0,.86-.36,1.24,1.24,0,0,0,.44-.65,3.86,3.86,0,0,0,.13-1c0-.71,0-1.4,0-2s0-1.37,0-2.17A3,3,0,0,1,10.06,74a2.39,2.39,0,0,1,1.61-.8v-.1a2.35,2.35,0,0,1-1.58-.8,3,3,0,0,1-.39-1.74c0-.73.05-1.45.1-2.15s.1-1.4.11-2.06a3.91,3.91,0,0,0-.1-1,1.2,1.2,0,0,0-.41-.65,1.9,1.9,0,0,0-.86-.36,6.64,6.64,0,0,0-1.39-.12H6l0-1.12H7.39a9.61,9.61,0,0,1,1.82.15,3.46,3.46,0,0,1,1.28.5,2.06,2.06,0,0,1,.74,1,3.83,3.83,0,0,1,.22,1.5c0,.81-.06,1.57-.14,2.29s-.13,1.46-.14,2.21a1.84,1.84,0,0,0,.12.66,1.37,1.37,0,0,0,.49.57,2.88,2.88,0,0,0,1,.42,6.56,6.56,0,0,0,1.61.16l0,1.21a6.65,6.65,0,0,0-1.62.17,2.66,2.66,0,0,0-1,.42,1.43,1.43,0,0,0-.51.57,1.66,1.66,0,0,0-.14.66c0,.39,0,.76,0,1.12s0,.71.05,1.07,0,.73,0,1.11,0,.78,0,1.2a4,4,0,0,1-.27,1.5,2.06,2.06,0,0,1-.78.94,3.41,3.41,0,0,1-1.29.5A9.73,9.73,0,0,1,7,83.17H5.68l0-1.12Z"/><path class="cls-6" d="M217.52,36.63h3.31l-2.08,8.08c-.19.66-.38,1.3-.56,1.94s-.38,1.28-.57,1.93h.07c.32-.65.65-1.3,1-1.93s.68-1.28,1-1.94L222,40.5h2l-.38,4.21c-.07.62-.15,1.26-.22,1.91s-.15,1.31-.24,2h.09c.23-.65.45-1.3.66-1.94s.43-1.29.66-1.93l3-8.08h3.09L224,51.82h-3.4l.6-4.78c.06-.48.13-1,.22-1.48s.18-1,.3-1.43h-.07c-.19.45-.39.93-.62,1.43s-.45,1-.69,1.48L218,51.82h-3.34Z"/><path class="cls-6" d="M227.76,46A8.41,8.41,0,0,1,229,43.5a9.12,9.12,0,0,1,1.87-1.9,8.4,8.4,0,0,1,2.19-1.2,6.62,6.62,0,0,1,2.26-.42,4.68,4.68,0,0,1,2.1.42,2.76,2.76,0,0,1,1.24,1.17,3.75,3.75,0,0,1,.42,1.76,7,7,0,0,1-.36,2.2c-.1.31-.2.59-.31.85a5.73,5.73,0,0,1-.28.59H230.8a2,2,0,0,0,.5,1.92,2.7,2.7,0,0,0,1.88.6,5.81,5.81,0,0,0,1.49-.2,10.18,10.18,0,0,0,1.59-.59l.41,2a10.94,10.94,0,0,1-2.39,1,8.58,8.58,0,0,1-2.36.36,5.83,5.83,0,0,1-2.25-.41,3.52,3.52,0,0,1-1.55-1.19,4,4,0,0,1-.7-1.9A6.25,6.25,0,0,1,227.76,46ZM236,44.85a2.16,2.16,0,0,0,0-1.63c-.2-.42-.68-.63-1.43-.63a3.3,3.3,0,0,0-1.75.55,4,4,0,0,0-1.43,1.71Z"/><path class="cls-6" d="M243.52,35.49h3.24l-1.26,4-.66,1.82a7.42,7.42,0,0,1,1.75-1A4.88,4.88,0,0,1,248.3,40a3.3,3.3,0,0,1,1.72.42,2.5,2.5,0,0,1,1,1.18,4.45,4.45,0,0,1,.29,1.84,8.86,8.86,0,0,1-.45,2.41,10.5,10.5,0,0,1-1.23,2.66,9.6,9.6,0,0,1-1.68,2,7,7,0,0,1-1.9,1.23,4.81,4.81,0,0,1-1.9.42,2.55,2.55,0,0,1-1.41-.4,3.24,3.24,0,0,1-1.09-1.14h-.09l-.66,1.26h-2.54Zm-.86,13a1.91,1.91,0,0,0,.77.6,2.55,2.55,0,0,0,.89.17,2.59,2.59,0,0,0,1.77-.8,5.86,5.86,0,0,0,1.43-2.6q1-3.12-1-3.12a4,4,0,0,0-2.37,1.07Z"/><path class="cls-6" d="M267.14,36.63h3.91a7.4,7.4,0,0,1,2.71.44,3.65,3.65,0,0,1,1.75,1.36,4.43,4.43,0,0,1,.67,2.35,10.4,10.4,0,0,1-.57,3.37,13.41,13.41,0,0,1-1.56,3.41,10.33,10.33,0,0,1-2.14,2.38,8.53,8.53,0,0,1-2.57,1.41,9.07,9.07,0,0,1-2.89.47h-4.08ZM267,49.05a5.18,5.18,0,0,0,1.62-.26A4.43,4.43,0,0,0,270,48a6.12,6.12,0,0,0,1.24-1.5,10.45,10.45,0,0,0,1-2.31,8.36,8.36,0,0,0,.44-2.27,2.77,2.77,0,0,0-.31-1.47,1.84,1.84,0,0,0-1-.78A4.26,4.26,0,0,0,270,39.4h-.46l-3,9.65Z"/><path class="cls-6" d="M276,46a8.41,8.41,0,0,1,1.27-2.54,9.12,9.12,0,0,1,1.87-1.9,8.4,8.4,0,0,1,2.19-1.2,6.62,6.62,0,0,1,2.26-.42,4.68,4.68,0,0,1,2.1.42A2.76,2.76,0,0,1,287,41.57a3.75,3.75,0,0,1,.42,1.76,7,7,0,0,1-.36,2.2c-.1.31-.2.59-.31.85a5.73,5.73,0,0,1-.28.59h-7.36a2,2,0,0,0,.5,1.92,2.7,2.7,0,0,0,1.88.6,5.81,5.81,0,0,0,1.49-.2,10.18,10.18,0,0,0,1.59-.59l.41,2a10.94,10.94,0,0,1-2.39,1,8.58,8.58,0,0,1-2.36.36,5.79,5.79,0,0,1-2.25-.41,3.52,3.52,0,0,1-1.55-1.19,4,4,0,0,1-.7-1.9A6.25,6.25,0,0,1,276,46Zm8.27-1.19a2.16,2.16,0,0,0,0-1.63c-.2-.42-.68-.63-1.43-.63a3.3,3.3,0,0,0-1.75.55,4,4,0,0,0-1.43,1.71Z"/><path class="cls-6" d="M289.39,40.26h3.27v5.45c0,.59,0,1.19,0,1.78s-.05,1.18-.08,1.79h.09l1-1.79c.34-.59.69-1.19,1.06-1.78l3.43-5.45h3.11l-7.65,11.56h-3.73Z"/><path class="cls-6" d="M300.17,46a8.66,8.66,0,0,1,1.28-2.54,9.32,9.32,0,0,1,1.86-1.9,8.62,8.62,0,0,1,2.2-1.2,6.62,6.62,0,0,1,2.26-.42,4.68,4.68,0,0,1,2.1.42,2.76,2.76,0,0,1,1.24,1.17,3.75,3.75,0,0,1,.42,1.76,7,7,0,0,1-.36,2.2c-.1.31-.2.59-.31.85a5.73,5.73,0,0,1-.28.59h-7.37a2.06,2.06,0,0,0,.5,1.92,2.75,2.75,0,0,0,1.89.6,5.81,5.81,0,0,0,1.49-.2,9.74,9.74,0,0,0,1.58-.59l.42,2a11.15,11.15,0,0,1-2.39,1,8.58,8.58,0,0,1-2.36.36,5.91,5.91,0,0,1-2.26-.41,3.55,3.55,0,0,1-1.54-1.19,4,4,0,0,1-.7-1.9A6.4,6.4,0,0,1,300.17,46Zm8.28-1.19a2.16,2.16,0,0,0,0-1.63c-.2-.42-.68-.63-1.43-.63a3.27,3.27,0,0,0-1.75.55,4,4,0,0,0-1.43,1.71Z"/><path class="cls-6" d="M315.72,35.49h6.42l-3.76,11.95a2.48,2.48,0,0,0-.14.89,1,1,0,0,0,.22.59,1,1,0,0,0,.47.31,2.12,2.12,0,0,0,.62.1,4.11,4.11,0,0,0,.82-.09,5.78,5.78,0,0,0,1-.29l-.06,2.52-.9.25a8,8,0,0,1-.81.2,7.55,7.55,0,0,1-.83.13,9.2,9.2,0,0,1-.94.05,2.73,2.73,0,0,1-2.72-1.29,4.75,4.75,0,0,1,.05-3.51l2.87-9.11h-3.18Z"/><path class="cls-6" d="M324.14,46a8.94,8.94,0,0,1,1.27-2.57,8.77,8.77,0,0,1,1.84-1.9,8,8,0,0,1,2.16-1.18,6.52,6.52,0,0,1,2.21-.41,4.61,4.61,0,0,1,2,.41A3.48,3.48,0,0,1,335,41.57a3.94,3.94,0,0,1,.65,1.9A6.66,6.66,0,0,1,335.3,46a8.8,8.8,0,0,1-3.11,4.47A8.18,8.18,0,0,1,330,51.69a6.52,6.52,0,0,1-2.21.41,4.61,4.61,0,0,1-2-.41,3.41,3.41,0,0,1-1.42-1.18,3.84,3.84,0,0,1-.65-1.89A6.5,6.5,0,0,1,324.14,46Zm3.33,0a4.07,4.07,0,0,0-.19,2.4,1.31,1.31,0,0,0,1.41.89,2.62,2.62,0,0,0,2-.89A6.11,6.11,0,0,0,332,46a4.07,4.07,0,0,0,.19-2.4,1.3,1.3,0,0,0-1.41-.88,2.61,2.61,0,0,0-2,.88A6.11,6.11,0,0,0,327.47,46Z"/><path class="cls-6" d="M337.9,52.73l-1.06,3.38H333.6l5-15.85h2.64l-.12,1.17h.07a8.55,8.55,0,0,1,1.84-1,5,5,0,0,1,1.87-.41,3.23,3.23,0,0,1,1.71.42,2.57,2.57,0,0,1,1,1.19,4.22,4.22,0,0,1,.29,1.85,9.46,9.46,0,0,1-.46,2.42,10.35,10.35,0,0,1-1.23,2.64,9.2,9.2,0,0,1-1.67,2,7,7,0,0,1-1.9,1.23,4.81,4.81,0,0,1-1.9.42,2.67,2.67,0,0,1-2.35-1.26Zm1.32-4.2a1.91,1.91,0,0,0,.77.6,2.48,2.48,0,0,0,.86.17,2.62,2.62,0,0,0,1.8-.8,5.86,5.86,0,0,0,1.43-2.6q1-3.12-1-3.12a4,4,0,0,0-2.37,1.07Z"/><path class="cls-6" d="M348.45,46a8.43,8.43,0,0,1,1.28-2.54,9.32,9.32,0,0,1,1.86-1.9,8.62,8.62,0,0,1,2.2-1.2,6.62,6.62,0,0,1,2.26-.42,4.68,4.68,0,0,1,2.1.42,2.76,2.76,0,0,1,1.24,1.17,3.75,3.75,0,0,1,.42,1.76,7,7,0,0,1-.36,2.2c-.1.31-.2.59-.31.85a5.73,5.73,0,0,1-.28.59H351.5a2,2,0,0,0,.49,1.92,2.75,2.75,0,0,0,1.89.6,5.81,5.81,0,0,0,1.49-.2A10.18,10.18,0,0,0,357,48.7l.41,2a10.94,10.94,0,0,1-2.39,1,8.58,8.58,0,0,1-2.36.36,5.79,5.79,0,0,1-2.25-.41,3.52,3.52,0,0,1-1.55-1.19,4,4,0,0,1-.7-1.9A6.4,6.4,0,0,1,348.45,46Zm8.28-1.19a2.16,2.16,0,0,0,0-1.63c-.2-.42-.68-.63-1.43-.63a3.27,3.27,0,0,0-1.75.55,4,4,0,0,0-1.43,1.71Z"/><path class="cls-6" d="M363.69,40.26h2.65l-.53,2.52h.07a8.92,8.92,0,0,1,2.62-2.11,5.94,5.94,0,0,1,2.69-.69,4.26,4.26,0,0,1,1.14.12,3.5,3.5,0,0,1,.83.35l-1.56,2.86q-.47-.15-.84-.24a5.38,5.38,0,0,0-1-.08,4.65,4.65,0,0,0-2.19.63,7.66,7.66,0,0,0-2.38,2.19l-1.89,6h-3.25Z"/></svg>